<svg width="84" height="75" viewBox="0 0 84 75" fill="none" xmlns="http://www.w3.org/2000/svg">
<path fill-rule="evenodd" clip-rule="evenodd" d="M80.9516 0.042877C59.3624 0.371379 41.1737 11.0653 28.2382 21.8848L3.30047 22.2398L0.337793 24.9184L0.562989 40.7337L1.47162 42.5873L7.49242 47.727L7.4991 47.7743L31.801 68.5196L31.8551 68.5241L37.9245 73.7052L40.0536 74.4447L58.0548 74.1884L61.0175 71.5098L60.7057 49.611C72.657 37.9566 84.2905 21.6825 83.9953 2.63595L80.9516 0.042877ZM6.37574 27.4689L22.2348 27.2431C17.4548 31.7797 13.0604 36.6183 9.08734 41.7196L6.54794 39.5623L6.37574 27.4689ZM41.1786 69.1559L38.6267 66.9618C44.3289 63.3461 49.7187 59.3637 54.7515 55.0477L54.9496 68.9598L41.1786 69.1559ZM34.2343 63.2227L13.4502 45.4908C19.2947 37.8306 44.3788 7.70832 77.9496 5.44281C76.4148 35.0557 42.7648 57.8969 34.2343 63.2227ZM19.0522 74.7438L18.9771 69.472L6.97626 69.6429L6.82613 59.0994L0.825717 59.1848L1.05091 75.0001L19.0522 74.7438ZM58.9674 33.7487C60.2682 31.9849 60.7202 29.842 60.2239 27.7912C59.7276 25.7405 58.3237 23.95 56.321 22.8136C54.3184 21.6772 51.881 21.2881 49.5451 21.7317C47.2092 22.1753 45.1661 23.4154 43.8653 25.1792C42.5645 26.9423 42.1122 29.0846 42.608 31.1348C43.1037 33.1851 44.5068 34.9753 46.5087 36.1117C48.5105 37.2481 50.9472 37.6375 53.2825 37.1944C55.6178 36.7513 57.6606 35.5119 58.9614 33.7488L58.9674 33.7487Z" fill="#E4ECF0"/>
</svg>
